<svg width="1182" height="306" viewBox="0 0 1182 306" fill="none" xmlns="http://www.w3.org/2000/svg">
<path d="M37.224 246.408C33.896 246.408 30.504 245.917 27.048 244.936C23.592 243.955 20.2854 242.376 17.128 240.2C13.9707 238.024 11.1334 235.165 8.61604 231.624C6.0987 228.04 4.1147 223.688 2.66404 218.568C1.21337 213.448 0.488037 207.411 0.488037 200.456C0.488037 193.629 1.19204 187.677 2.60004 182.6C4.0507 177.48 5.99204 173.149 8.42404 169.608C10.8987 166.024 13.6934 163.144 16.808 160.968C19.9654 158.749 23.272 157.149 26.728 156.168C30.2267 155.144 33.6827 154.632 37.096 154.632C41.064 154.632 44.712 155.123 48.04 156.104C51.4107 157.085 54.376 158.451 56.936 160.2C59.5387 161.907 61.6934 163.933 63.4 166.28C65.1067 168.584 66.3014 171.08 66.984 173.768L55.144 178.696C54.7174 176.861 54.0134 175.112 53.032 173.448C52.0507 171.741 50.792 170.227 49.256 168.904C47.72 167.581 45.9067 166.536 43.816 165.768C41.768 164.957 39.4427 164.552 36.84 164.552C34.536 164.552 32.2534 164.979 29.992 165.832C27.7307 166.685 25.5974 168.029 23.592 169.864C21.5867 171.656 19.7947 173.96 18.216 176.776C16.68 179.592 15.464 182.963 14.568 186.888C13.7147 190.813 13.288 195.336 13.288 200.456C13.288 206.941 13.992 212.467 15.4 217.032C16.808 221.597 18.664 225.331 20.968 228.232C23.3147 231.091 25.9174 233.181 28.776 234.504C31.6347 235.827 34.4934 236.488 37.352 236.488C40.168 236.488 42.792 235.955 45.224 234.888C47.656 233.821 49.768 232.179 51.56 229.96C53.3947 227.699 54.8027 224.84 55.784 221.384C56.808 217.885 57.32 213.704 57.32 208.84H36.456V198.92H69.48V205.896C69.48 211.741 68.904 216.904 67.752 221.384C66.6 225.821 65 229.619 62.952 232.776C60.904 235.933 58.5147 238.536 55.784 240.584C53.0534 242.589 50.1094 244.061 46.952 245C43.8374 245.939 40.5947 246.408 37.224 246.408Z" fill="white"/>
<path d="M92.058 245V235.272H105.562V190.728H92.058V181H115.866L118.234 196.808V235.272H133.658V245H92.058ZM118.042 207.752L112.922 205.704C113.007 202.931 113.562 200.264 114.586 197.704C115.653 195.101 117.061 192.691 118.81 190.472C120.559 188.253 122.586 186.333 124.89 184.712C127.194 183.091 129.669 181.811 132.314 180.872C135.002 179.933 137.754 179.464 140.57 179.464C143.429 179.464 145.583 179.72 147.034 180.232C148.527 180.701 149.509 181.085 149.978 181.384L147.098 192.264C146.671 191.923 145.775 191.56 144.41 191.176C143.045 190.749 141.231 190.536 138.97 190.536C136.581 190.536 134.213 191.027 131.866 192.008C129.562 192.989 127.429 194.312 125.466 195.976C123.546 197.597 121.925 199.453 120.602 201.544C119.322 203.592 118.469 205.661 118.042 207.752Z" fill="white"/>
<path d="M194.828 246.408C191.201 246.408 187.852 245.939 184.78 245C181.751 244.104 179.127 242.781 176.908 241.032C174.689 239.24 172.961 237.043 171.724 234.44C170.529 231.837 169.932 228.851 169.932 225.48C169.932 222.621 170.423 220.104 171.404 217.928C172.428 215.709 173.836 213.811 175.628 212.232C177.42 210.653 179.447 209.352 181.708 208.328C183.969 207.304 186.359 206.557 188.876 206.088C191.393 205.576 193.911 205.32 196.428 205.32C199.5 205.32 202.295 205.64 204.812 206.28C207.372 206.92 209.527 207.709 211.276 208.648C213.068 209.587 214.348 210.504 215.116 211.4V202.184C215.116 199.837 214.647 197.853 213.708 196.232C212.769 194.611 211.511 193.309 209.932 192.328C208.353 191.347 206.561 190.643 204.556 190.216C202.593 189.747 200.524 189.512 198.348 189.512C196.172 189.512 194.081 189.725 192.076 190.152C190.071 190.579 188.193 191.133 186.444 191.816C184.695 192.456 183.137 193.16 181.772 193.928C180.407 194.696 179.255 195.421 178.316 196.104L172.62 186.696C174.156 185.544 176.247 184.413 178.892 183.304C181.537 182.195 184.588 181.277 188.044 180.552C191.543 179.827 195.276 179.464 199.244 179.464C201.847 179.464 204.492 179.677 207.18 180.104C209.868 180.531 212.428 181.235 214.86 182.216C217.335 183.197 219.532 184.52 221.452 186.184C223.415 187.805 224.951 189.811 226.06 192.2C227.169 194.547 227.724 197.341 227.724 200.584V235.272H237.26V245H217.484L216.268 236.808C215.5 238.216 214.177 239.667 212.3 241.16C210.423 242.611 208.012 243.848 205.068 244.872C202.124 245.896 198.711 246.408 194.828 246.408ZM197.964 236.744C201.164 236.744 203.916 236.253 206.22 235.272C208.567 234.291 210.465 233.139 211.916 231.816C213.409 230.451 214.476 229.235 215.116 228.168V220.232C214.348 219.165 213.089 218.12 211.34 217.096C209.633 216.072 207.649 215.219 205.388 214.536C203.127 213.853 200.844 213.512 198.54 213.512C195.852 213.512 193.271 213.896 190.796 214.664C188.364 215.432 186.359 216.648 184.78 218.312C183.201 219.976 182.412 222.173 182.412 224.904C182.412 227.635 183.052 229.875 184.332 231.624C185.655 233.373 187.468 234.675 189.772 235.528C192.119 236.339 194.849 236.744 197.964 236.744Z" fill="white"/>
<path d="M277.054 246.408C273.683 246.408 270.377 245.747 267.134 244.424C263.934 243.101 261.033 241.075 258.43 238.344C255.827 235.571 253.737 232.072 252.158 227.848C250.622 223.624 249.854 218.632 249.854 212.872C249.854 205.192 251.134 198.899 253.694 193.992C256.254 189.043 259.561 185.416 263.614 183.112C267.667 180.765 271.934 179.592 276.414 179.592C280.425 179.592 283.987 180.381 287.102 181.96C290.259 183.539 292.926 185.608 295.102 188.168C297.321 190.685 298.985 193.416 300.094 196.36C301.246 199.304 301.822 202.141 301.822 204.872L297.022 206.6C296.595 204.509 295.913 202.483 294.974 200.52C294.078 198.515 292.905 196.701 291.454 195.08C290.003 193.459 288.318 192.179 286.398 191.24C284.478 190.259 282.323 189.768 279.934 189.768C276.777 189.768 273.875 190.6 271.23 192.264C268.585 193.885 266.473 196.403 264.894 199.816C263.315 203.187 262.526 207.539 262.526 212.872C262.526 218.12 263.337 222.472 264.958 225.928C266.622 229.384 268.798 231.965 271.486 233.672C274.217 235.379 277.182 236.232 280.382 236.232C282.729 236.232 284.862 235.72 286.782 234.696C288.745 233.629 290.43 232.221 291.838 230.472C293.246 228.723 294.377 226.76 295.23 224.584C296.083 222.408 296.617 220.168 296.83 217.864L302.014 219.592C302.014 222.408 301.459 225.395 300.35 228.552C299.241 231.667 297.619 234.589 295.486 237.32C293.353 240.008 290.75 242.205 287.678 243.912C284.606 245.576 281.065 246.408 277.054 246.408ZM309.246 149V240.904L303.55 235.208H319.358V245H297.982L296.51 231.56V149H309.246Z" fill="white"/>
<path d="M367.728 246.408C363.888 246.408 360.069 245.747 356.272 244.424C352.517 243.059 349.104 241.011 346.032 238.28C342.96 235.549 340.507 232.072 338.672 227.848C336.837 223.624 335.92 218.632 335.92 212.872C335.92 207.112 336.837 202.12 338.672 197.896C340.507 193.672 342.96 190.216 346.032 187.528C349.147 184.797 352.603 182.771 356.4 181.448C360.197 180.125 364.059 179.464 367.984 179.464C372.08 179.464 376.005 180.104 379.76 181.384C383.515 182.664 386.843 184.563 389.744 187.08C392.688 189.597 395.013 192.755 396.72 196.552C398.427 200.349 399.28 204.787 399.28 209.864C399.28 210.675 399.237 211.571 399.152 212.552C399.109 213.533 399.003 214.387 398.832 215.112H346.032V206.984H385.904C385.904 206.728 385.904 206.557 385.904 206.472C385.904 206.344 385.904 206.173 385.904 205.96C385.904 202.504 385.093 199.517 383.472 197C381.851 194.483 379.675 192.563 376.944 191.24C374.256 189.875 371.333 189.192 368.176 189.192C365.872 189.192 363.589 189.64 361.328 190.536C359.067 191.389 356.997 192.755 355.12 194.632C353.243 196.509 351.728 198.963 350.576 201.992C349.467 204.979 348.912 208.584 348.912 212.808C348.912 218.056 349.829 222.451 351.664 225.992C353.541 229.491 355.952 232.136 358.896 233.928C361.883 235.72 365.061 236.616 368.432 236.616C371.589 236.616 374.32 236.125 376.624 235.144C378.928 234.12 380.805 232.861 382.256 231.368C383.707 229.832 384.688 228.339 385.2 226.888L396.848 232.712C395.867 234.504 394.501 236.232 392.752 237.896C391.045 239.517 388.955 240.968 386.48 242.248C384.048 243.528 381.253 244.531 378.096 245.256C374.981 246.024 371.525 246.408 367.728 246.408Z" fill="white"/>
<path d="M1182 0.233337C678.067 29.2333 445 244.667 392.7 295.667L382 305.767H475.233C727.2 53.1667 1089.4 8.43334 1182 0.233337ZM613.8 211.9C598.067 222.6 582.3 234.567 567.2 245.9L649.1 305.767H741.7L613.8 211.9ZM480.267 113H388.3L496.633 192.367C512.4 181.667 530.633 170.333 547.033 160.867L480.267 113Z" fill="#E6EA45"/>
</svg>
