<svg width="1643" height="307" viewBox="0 0 1643 307" fill="none" xmlns="http://www.w3.org/2000/svg">
<path d="M74.448 306.816C67.792 306.816 61.008 305.835 54.096 303.872C47.184 301.909 40.5706 298.752 34.256 294.4C27.9413 290.048 22.2666 284.331 17.232 277.248C12.1973 270.08 8.22929 261.376 5.32795 251.136C2.42662 240.896 0.975952 228.821 0.975952 214.912C0.975952 201.259 2.38395 189.355 5.19995 179.2C8.10129 168.96 11.984 160.299 16.848 153.216C21.7973 146.048 27.3866 140.288 33.616 135.936C39.9306 131.499 46.544 128.299 53.456 126.336C60.4533 124.288 67.3653 123.264 74.192 123.264C82.128 123.264 89.424 124.245 96.08 126.208C102.821 128.171 108.752 130.901 113.872 134.4C119.077 137.813 123.387 141.867 126.8 146.56C130.213 151.168 132.603 156.16 133.968 161.536L110.288 171.392C109.435 167.723 108.027 164.224 106.064 160.896C104.101 157.483 101.584 154.453 98.512 151.808C95.44 149.163 91.8133 147.072 87.632 145.536C83.536 143.915 78.8853 143.104 73.68 143.104C69.072 143.104 64.5066 143.957 59.984 145.664C55.4613 147.371 51.1946 150.059 47.184 153.728C43.1733 157.312 39.5893 161.92 36.432 167.552C33.36 173.184 30.928 179.925 29.136 187.776C27.4293 195.627 26.576 204.672 26.576 214.912C26.576 227.883 27.984 238.933 30.8 248.064C33.616 257.195 37.328 264.661 41.936 270.464C46.6293 276.181 51.8346 280.363 57.552 283.008C63.2693 285.653 68.9866 286.976 74.704 286.976C80.336 286.976 85.584 285.909 90.448 283.776C95.312 281.643 99.536 278.357 103.12 273.92C106.789 269.397 109.605 263.68 111.568 256.768C113.616 249.771 114.64 241.408 114.64 231.68H72.912V211.84H138.96V225.792C138.96 237.483 137.808 247.808 135.504 256.768C133.2 265.643 130 273.237 125.904 279.552C121.808 285.867 117.029 291.072 111.568 295.168C106.107 299.179 100.219 302.123 93.904 304C87.6746 305.877 81.1893 306.816 74.448 306.816Z" fill="white"/>
<path d="M184.116 304V284.544H211.124V195.456H184.116V176H231.732L236.468 207.616V284.544H267.316V304H184.116ZM236.084 229.504L225.844 225.408C226.015 219.861 227.124 214.528 229.172 209.408C231.305 204.203 234.121 199.381 237.62 194.944C241.119 190.507 245.172 186.667 249.78 183.424C254.388 180.181 259.337 177.621 264.628 175.744C270.004 173.867 275.508 172.928 281.14 172.928C286.857 172.928 291.167 173.44 294.068 174.464C297.055 175.403 299.017 176.171 299.956 176.768L294.196 198.528C293.343 197.845 291.551 197.12 288.82 196.352C286.089 195.499 282.463 195.072 277.94 195.072C273.161 195.072 268.425 196.053 263.732 198.016C259.124 199.979 254.857 202.624 250.932 205.952C247.092 209.195 243.849 212.907 241.204 217.088C238.644 221.184 236.937 225.323 236.084 229.504Z" fill="white"/>
<path d="M389.656 306.816C382.403 306.816 375.704 305.877 369.56 304C363.501 302.208 358.253 299.563 353.816 296.064C349.379 292.48 345.923 288.085 343.448 282.88C341.059 277.675 339.864 271.701 339.864 264.96C339.864 259.243 340.845 254.208 342.808 249.856C344.856 245.419 347.672 241.621 351.256 238.464C354.84 235.307 358.893 232.704 363.416 230.656C367.939 228.608 372.717 227.115 377.752 226.176C382.787 225.152 387.821 224.64 392.856 224.64C399 224.64 404.589 225.28 409.624 226.56C414.744 227.84 419.053 229.419 422.552 231.296C426.136 233.173 428.696 235.008 430.232 236.8V218.368C430.232 213.675 429.293 209.707 427.416 206.464C425.539 203.221 423.021 200.619 419.864 198.656C416.707 196.693 413.123 195.285 409.112 194.432C405.187 193.493 401.048 193.024 396.696 193.024C392.344 193.024 388.163 193.451 384.152 194.304C380.141 195.157 376.387 196.267 372.888 197.632C369.389 198.912 366.275 200.32 363.544 201.856C360.813 203.392 358.509 204.843 356.632 206.208L345.24 187.392C348.312 185.088 352.493 182.827 357.784 180.608C363.075 178.389 369.176 176.555 376.088 175.104C383.085 173.653 390.552 172.928 398.488 172.928C403.693 172.928 408.984 173.355 414.36 174.208C419.736 175.061 424.856 176.469 429.72 178.432C434.669 180.395 439.064 183.04 442.904 186.368C446.829 189.611 449.901 193.621 452.12 198.4C454.339 203.093 455.448 208.683 455.448 215.168V284.544H474.52V304H434.968L432.536 287.616C431 290.432 428.355 293.333 424.6 296.32C420.845 299.221 416.024 301.696 410.136 303.744C404.248 305.792 397.421 306.816 389.656 306.816ZM395.928 287.488C402.328 287.488 407.832 286.507 412.44 284.544C417.133 282.581 420.931 280.277 423.832 277.632C426.819 274.901 428.952 272.469 430.232 270.336V254.464C428.696 252.331 426.179 250.24 422.68 248.192C419.267 246.144 415.299 244.437 410.776 243.072C406.253 241.707 401.688 241.024 397.08 241.024C391.704 241.024 386.541 241.792 381.592 243.328C376.728 244.864 372.717 247.296 369.56 250.624C366.403 253.952 364.824 258.347 364.824 263.808C364.824 269.269 366.104 273.749 368.664 277.248C371.309 280.747 374.936 283.349 379.544 285.056C384.237 286.677 389.699 287.488 395.928 287.488Z" fill="white"/>
<path d="M554.108 306.816C547.367 306.816 540.753 305.493 534.268 302.848C527.868 300.203 522.065 296.149 516.86 290.688C511.655 285.141 507.473 278.144 504.316 269.696C501.244 261.248 499.708 251.264 499.708 239.744C499.708 224.384 502.268 211.797 507.388 201.984C512.508 192.085 519.121 184.832 527.228 180.224C535.335 175.531 543.868 173.184 552.828 173.184C560.849 173.184 567.975 174.763 574.204 177.92C580.519 181.077 585.852 185.216 590.204 190.336C594.641 195.371 597.969 200.832 600.188 206.72C602.492 212.608 603.644 218.283 603.644 223.744L594.044 227.2C593.191 223.019 591.825 218.965 589.948 215.04C588.156 211.029 585.809 207.403 582.908 204.16C580.007 200.917 576.636 198.357 572.796 196.48C568.956 194.517 564.647 193.536 559.868 193.536C553.553 193.536 547.751 195.2 542.46 198.528C537.169 201.771 532.945 206.805 529.788 213.632C526.631 220.373 525.052 229.077 525.052 239.744C525.052 250.24 526.673 258.944 529.916 265.856C533.244 272.768 537.596 277.931 542.972 281.344C548.433 284.757 554.364 286.464 560.764 286.464C565.457 286.464 569.724 285.44 573.564 283.392C577.489 281.259 580.86 278.443 583.676 274.944C586.492 271.445 588.753 267.52 590.46 263.168C592.167 258.816 593.233 254.336 593.66 249.728L604.028 253.184C604.028 258.816 602.919 264.789 600.7 271.104C598.481 277.333 595.239 283.179 590.972 288.64C586.705 294.016 581.5 298.411 575.356 301.824C569.212 305.152 562.129 306.816 554.108 306.816ZM618.492 112V295.808L607.1 284.416H638.716V304H595.964L593.02 277.12V112H618.492Z" fill="white"/>
<path d="M735.456 306.816C727.776 306.816 720.139 305.493 712.544 302.848C705.035 300.117 698.208 296.021 692.064 290.56C685.92 285.099 681.013 278.144 677.344 269.696C673.675 261.248 671.84 251.264 671.84 239.744C671.84 228.224 673.675 218.24 677.344 209.792C681.013 201.344 685.92 194.432 692.064 189.056C698.293 183.595 705.205 179.541 712.8 176.896C720.395 174.251 728.117 172.928 735.968 172.928C744.16 172.928 752.011 174.208 759.52 176.768C767.029 179.328 773.685 183.125 779.488 188.16C785.376 193.195 790.027 199.509 793.44 207.104C796.853 214.699 798.56 223.573 798.56 233.728C798.56 235.349 798.475 237.141 798.304 239.104C798.219 241.067 798.005 242.773 797.664 244.224H692.064V227.968H771.808C771.808 227.456 771.808 227.115 771.808 226.944C771.808 226.688 771.808 226.347 771.808 225.92C771.808 219.008 770.187 213.035 766.944 208C763.701 202.965 759.349 199.125 753.888 196.48C748.512 193.749 742.667 192.384 736.352 192.384C731.744 192.384 727.179 193.28 722.656 195.072C718.133 196.779 713.995 199.509 710.24 203.264C706.485 207.019 703.456 211.925 701.152 217.984C698.933 223.957 697.824 231.168 697.824 239.616C697.824 250.112 699.659 258.901 703.328 265.984C707.083 272.981 711.904 278.272 717.792 281.856C723.765 285.44 730.123 287.232 736.864 287.232C743.179 287.232 748.64 286.251 753.248 284.288C757.856 282.24 761.611 279.723 764.512 276.736C767.413 273.664 769.376 270.677 770.4 267.776L793.696 279.424C791.733 283.008 789.003 286.464 785.504 289.792C782.091 293.035 777.909 295.936 772.96 298.496C768.096 301.056 762.507 303.061 756.192 304.512C749.963 306.048 743.051 306.816 735.456 306.816Z" fill="white"/>
<path d="M1643 0.233337C1139.07 29.2333 906 244.667 853.7 295.667L843 305.767H936.233C1188.2 53.1667 1550.4 8.43334 1643 0.233337ZM1074.8 211.9C1059.07 222.6 1043.3 234.567 1028.2 245.9L1110.1 305.767H1202.7L1074.8 211.9ZM941.267 113H849.3L957.633 192.367C973.4 181.667 991.633 170.333 1008.03 160.867L941.267 113Z" fill="#E6EA45"/>
</svg>
